<?xml version="1.0" encoding="UTF-8" standalone="no"?>
<!-- Created with Inkscape (http://www.inkscape.org/) -->

<svg
   xmlns:dc="http://purl.org/dc/elements/1.1/"
   xmlns:cc="http://creativecommons.org/ns#"
   xmlns:rdf="http://www.w3.org/1999/02/22-rdf-syntax-ns#"
   xmlns:svg="http://www.w3.org/2000/svg"
   xmlns="http://www.w3.org/2000/svg"
   xmlns:sodipodi="http://sodipodi.sourceforge.net/DTD/sodipodi-0.dtd"
   xmlns:inkscape="http://www.inkscape.org/namespaces/inkscape"
   id="svg2"
   version="1.1"
   inkscape:version="0.48.2 r9819"
   width="640"
   height="690"
   xml:space="preserve"
   sodipodi:docname="Social_Media_Icons_Set.svg"><metadata
     id="metadata8"><rdf:RDF><cc:Work
         rdf:about=""><dc:format>image/svg+xml</dc:format><dc:type
           rdf:resource="http://purl.org/dc/dcmitype/StillImage" /><dc:title></dc:title><dc:contributor><cc:Agent><dc:title>http://simpleicon.com/link-2.html
https://dribbble.com/shots/1509889-Free-Social-Media-Icons</dc:title></cc:Agent></dc:contributor></cc:Work></rdf:RDF></metadata><defs
     id="defs6"><clipPath
       clipPathUnits="userSpaceOnUse"
       id="clipPath16"><path
         d="M 0,512 512,512 512,0 0,0 0,512 z"
         id="path18"
         inkscape:connector-curvature="0" /></clipPath></defs><sodipodi:namedview
     pagecolor="#ffffff"
     bordercolor="#666666"
     borderopacity="1"
     objecttolerance="10"
     gridtolerance="10"
     guidetolerance="10"
     inkscape:pageopacity="0"
     inkscape:pageshadow="2"
     inkscape:window-width="1280"
     inkscape:window-height="752"
     id="namedview4"
     showgrid="false"
     inkscape:zoom="1.28"
     inkscape:cx="280.15813"
     inkscape:cy="523.53765"
     inkscape:window-x="0"
     inkscape:window-y="0"
     inkscape:window-maximized="1"
     inkscape:current-layer="g44" /><g
     id="g10"
     inkscape:groupmode="layer"
     inkscape:label="Social_Media_Icons_Set"
     transform="matrix(1.25,0,0,-1.25,0,690)"><g
       id="g20"
       transform="translate(350.4209,391.1504)"><path
         d="m 0,0 c -2.813,0 -5.459,1.521 -6.364,3.247 0,0 -1.514,-6.003 -1.833,-7.161 -1.128,-4.094 -4.447,-8.191 -4.704,-8.526 -0.18,-0.234 -0.577,-0.161 -0.619,0.149 -0.072,0.521 -0.918,5.687 0.079,9.9 0.499,2.117 3.35,14.198 3.35,14.198 0,0 -0.831,1.664 -0.831,4.123 0,3.861 2.238,6.744 5.026,6.744 2.369,0 3.513,-1.779 3.513,-3.912 0,-2.382 -1.516,-5.945 -2.301,-9.245 -0.653,-2.765 1.387,-5.019 4.113,-5.019 4.935,0 8.26,6.341 8.26,13.853 0,5.71 -3.844,9.985 -10.84,9.985 -7.902,0 -12.828,-5.895 -12.828,-12.479 0,-2.269 0.67,-3.872 1.719,-5.11 0.482,-0.569 0.55,-0.798 0.375,-1.452 -0.127,-0.48 -0.412,-1.634 -0.532,-2.091 -0.173,-0.66 -0.708,-0.895 -1.305,-0.651 -3.638,1.485 -5.335,5.471 -5.335,9.953 0,7.401 6.243,16.276 18.62,16.276 9.95,0 16.496,-7.197 16.496,-14.926 C 14.059,7.636 8.376,0 0,0 m -4.723,47.85 c -19.881,0 -36,-16.118 -36,-36 0,-19.883 16.119,-36 36,-36 19.882,0 36,16.117 36,36 0,19.882 -16.118,36 -36,36"
         style="fill:#000000;fill-opacity:1;fill-rule:nonzero;stroke:none"
         id="path22"
         inkscape:connector-curvature="0" /></g><g
       id="g24"
       transform="translate(272.8066,415.3418)"><path
         d="m 0,0 c 0,4.422 -3.586,8.007 -8.008,8.007 l -21.882,0 0,-10.095 -1.641,0 0,10.095 -0.948,0 c -0.063,0 -0.124,-0.003 -0.186,-0.004 l 0,-10.091 -1.642,0 0,9.883 C -34.704,7.702 -35.091,7.58 -35.463,7.431 l 0,-9.519 -1.641,0 0,8.622 C -39.15,5.084 -40.487,2.699 -40.487,0 l 0,-5.259 12.837,0 c 1.879,1.907 4.49,3.092 7.379,3.092 2.89,0 5.501,-1.185 7.381,-3.092 l 12.889,0 0,5.259 L 0,0 z m -20.271,-20.508 c 4.402,0 7.982,3.58 7.982,7.982 0,2.388 -1.057,4.534 -2.726,5.999 -0.586,0.512 -1.246,0.941 -1.964,1.268 -1.003,0.456 -2.118,0.713 -3.292,0.713 -1.172,0 -2.287,-0.257 -3.291,-0.713 -0.717,-0.327 -1.378,-0.756 -1.963,-1.268 -1.669,-1.465 -2.726,-3.611 -2.726,-5.999 0,-4.402 3.58,-7.982 7.98,-7.982 M 0,-6.527 l -11.827,0 c 1.205,-1.694 1.917,-3.763 1.917,-5.999 0,-5.722 -4.639,-10.361 -10.361,-10.361 -5.72,0 -10.359,4.639 -10.359,10.361 0,2.236 0.711,4.305 1.917,5.999 l -11.774,0 0,-18.157 c 0,-4.421 3.586,-8.006 8.008,-8.006 l 24.471,0 c 4.423,0 8.008,3.585 8.008,8.006 l 0,18.157 z m 15.231,-5.815 c 0,-19.883 -16.117,-36 -36,-36 -19.881,0 -36,16.117 -36,36 0,19.883 16.119,36 36,36 19.883,0 36,-16.117 36,-36 m -35.475,-6.083 c 3.258,0 5.898,2.641 5.898,5.899 0,3.256 -2.64,5.897 -5.898,5.897 -3.258,0 -5.899,-2.641 -5.899,-5.897 0,-3.258 2.641,-5.899 5.899,-5.899 m 16.584,21.8 0,-4.425 c 0,-0.709 -0.575,-1.284 -1.285,-1.284 l -4.328,0 c -0.71,0 -1.286,0.575 -1.286,1.284 l 0,4.425 c 0,0.709 0.576,1.284 1.286,1.284 l 4.328,0 c 0.71,0 1.285,-0.575 1.285,-1.284"
         style="fill:#000000;fill-opacity:1;fill-rule:nonzero;stroke:none"
         id="path26"
         inkscape:connector-curvature="0" /></g><g
       id="g28"
       transform="translate(459.375,385.5957)"><path
         d="m 0,0 -7.866,0 0,13.404 c 0,3.677 -1.397,5.729 -4.304,5.729 -3.163,0 -4.816,-2.138 -4.816,-5.729 l 0,-13.404 -7.581,0 0,25.536 7.581,0 0,-3.439 c 0,0 2.28,4.218 7.695,4.218 C -3.876,26.315 0,23.009 0,16.169 L 0,0 z m -33.611,28.88 c -2.581,0 -4.674,2.11 -4.674,4.712 0,2.602 2.093,4.712 4.674,4.712 2.582,0 4.674,-2.11 4.674,-4.712 0,-2.602 -2.092,-4.712 -4.674,-4.712 m 3.99,-28.88 -7.904,0 0,25.536 7.904,0 0,-25.536 z m 9.604,53.404 c -19.881,0 -35.999,-16.117 -35.999,-36 0,-19.883 16.118,-36 35.999,-36 19.883,0 36,16.117 36,36 0,19.883 -16.117,36 -36,36"
         style="fill:#000000;fill-opacity:1;fill-rule:nonzero;stroke:none"
         id="path30"
         inkscape:connector-curvature="0" /></g><g
       id="g32"
       transform="translate(75.373,417.8213)"
       style="fill:#482458;fill-opacity:1"
       inkscape:export-filename="/Users/dacmanj/Downloads/Social Media Icons/facebook20.png"
       inkscape:export-xdpi="20"
       inkscape:export-ydpi="20"><path
         d="m 0,0 -5.031,0 c -1.777,0 -2.147,-0.728 -2.147,-2.565 l 0,-4.44 7.178,0 -0.691,-7.794 -6.487,0 0,-23.282 -9.297,0 0,23.184 -4.835,0 0,7.892 4.835,0 0,6.215 c 0,5.833 3.12,8.879 10.038,8.879 L 0,8.089 0,0 z m -10.655,21.179 c -19.883,0 -36,-16.117 -36,-36 0,-19.883 16.117,-36 36,-36 19.882,0 36,16.117 36,36 0,19.883 -16.118,36 -36,36"
         style="fill:#482458;fill-opacity:1;fill-rule:nonzero;stroke:none"
         id="path34"
         inkscape:connector-curvature="0" /></g><g
       id="g36"
       transform="translate(176.4834,409.2031)"
       style="fill:#482458;fill-opacity:1"
       inkscape:export-filename="/Users/dacmanj/Downloads/Social Media Icons/twitter20.png"
       inkscape:export-xdpi="20"
       inkscape:export-ydpi="20"><path
         d="m 0,0 c 0.527,-11.744 -8.23,-24.838 -23.733,-24.838 -4.715,0 -9.104,1.383 -12.799,3.752 4.429,-0.522 8.851,0.706 12.361,3.458 -3.653,0.067 -6.737,2.481 -7.799,5.798 1.308,-0.25 2.595,-0.177 3.77,0.142 -4.016,0.808 -6.787,4.425 -6.697,8.293 1.126,-0.625 2.414,-1.001 3.783,-1.043 -3.719,2.484 -4.772,7.394 -2.584,11.147 4.117,-5.052 10.269,-8.376 17.209,-8.725 -1.217,5.224 2.745,10.253 8.134,10.253 2.402,0 4.572,-1.013 6.094,-2.636 C -0.359,5.975 1.428,6.67 3.041,7.627 2.418,5.677 1.094,4.04 -0.63,3.008 1.059,3.209 2.668,3.658 4.166,4.322 3.047,2.647 1.631,1.177 0,0 m -18.105,29.797 c -19.882,0 -36,-16.117 -36,-36 0,-19.883 16.118,-36 36,-36 19.882,0 36,16.117 36,36 0,19.883 -16.118,36 -36,36"
         style="fill:#482458;fill-opacity:1;fill-rule:nonzero;stroke:none"
         id="path38"
         inkscape:connector-curvature="0" /></g><g
       id="g40"
       transform="translate(86.998,312.8037)"><path
         d="m 0,0 c -0.824,0.71 -1.847,1.065 -3.067,1.065 -1.328,0 -2.355,-0.377 -3.087,-1.129 -0.731,-0.754 -1.189,-1.774 -1.377,-3.061 l 8.908,0 C 1.283,-1.753 0.824,-0.711 0,0 M 6.574,-2.611 C 6.334,-1.061 5.809,0.303 4.999,1.477 4.102,2.809 2.961,3.785 1.581,4.402 c -1.378,0.619 -2.929,0.927 -4.65,0.927 -2.898,0 -5.255,-0.915 -7.072,-2.742 -1.816,-1.827 -2.724,-4.454 -2.724,-7.88 0,-3.656 1.006,-6.295 3.017,-7.918 2.012,-1.622 4.334,-2.433 6.966,-2.433 3.189,0 5.669,0.961 7.44,2.885 1.139,1.21 1.778,2.402 1.917,3.573 l -5.28,0 c -0.306,-0.58 -0.662,-1.033 -1.063,-1.359 -0.737,-0.605 -1.694,-0.908 -2.872,-0.908 -1.111,0 -2.061,0.248 -2.85,0.744 -1.299,0.799 -1.988,2.189 -2.068,4.174 l 14.403,0 C 6.77,-4.828 6.713,-3.52 6.574,-2.611 m -20.951,-4.287 c 0,1.535 -0.347,2.841 -1.041,3.918 -0.695,1.077 -1.725,1.863 -3.09,2.359 0.899,0.459 1.578,0.967 2.041,1.523 0.824,0.992 1.238,2.305 1.238,3.938 0,1.584 -0.409,2.945 -1.228,4.082 -1.359,1.849 -3.669,2.799 -6.93,2.849 l -12.925,0 0,-26.744 12.05,0 c 1.359,0 2.619,0.121 3.78,0.364 1.16,0.24 2.168,0.688 3.021,1.341 0.757,0.569 1.389,1.27 1.895,2.105 0.793,1.259 1.189,2.68 1.189,4.265 m 5.16,14.431 11.621,0 0,2.7 -11.621,0 0,-2.7 z m 29.04,-9.498 c 0,-19.984 -16.2,-36.183 -36.183,-36.183 -19.985,0 -36.185,16.199 -36.185,36.183 0,19.984 16.2,36.184 36.185,36.184 19.983,0 36.183,-16.2 36.183,-36.184 M -21.65,1.892 c 0.725,0.441 1.088,1.223 1.088,2.348 0,1.247 -0.479,2.069 -1.438,2.467 -0.826,0.279 -1.879,0.418 -3.16,0.418 l -5.818,0 0,-5.896 6.5,0 c 1.162,0 2.105,0.221 2.828,0.663 m 1.63,-8.41 c 0,-1.644 -0.584,-2.757 -1.756,-3.338 -0.646,-0.316 -1.549,-0.472 -2.708,-0.472 l -6.494,0 0,7.13 6.582,0 c 1.15,-0.013 2.039,-0.163 2.673,-0.454 1.136,-0.52 1.703,-1.475 1.703,-2.866"
         style="fill:#000000;fill-opacity:1;fill-rule:nonzero;stroke:none"
         id="path42"
         inkscape:connector-curvature="0" /></g><g
       id="g44"
       transform="translate(163.9355,319.2881)"><path
         d="m 0,0 c -0.542,4.122 -3.228,7.504 -6.365,7.599 -3.139,0.092 -5.244,-3.062 -4.701,-7.185 0.542,-4.122 3.525,-7 6.664,-7.096 C -1.265,-6.775 0.541,-4.122 0,0 m 22.452,3.582 -5.373,0 0,5.373 -2.686,0 0,-5.373 -5.372,0 0,-2.686 5.372,0 0,-5.373 2.686,0 0,5.373 5.373,0 0,2.686 z M 7.264,-21.324 c 0,3.282 -1.226,5.427 -4.935,8.206 -3.763,2.743 -4.682,4.293 -1.091,7.069 2.024,1.565 3.441,3.651 3.441,6.225 0,2.804 -1.147,5.349 -3.304,6.586 l 3.058,0 2.601,2.73 -11.645,0 c -7.27,0 -10.835,-4.356 -10.835,-9.15 0,-4.899 3.36,-8.757 9.923,-8.757 -1.018,-2.054 -0.61,-3.951 1.055,-5.308 -11.208,0 -13.606,-4.918 -13.606,-8.706 0,-4.909 5.642,-7.827 12.408,-7.827 9.253,0 12.93,4.902 12.93,8.932 m 29.177,12.699 c 0,-19.983 -16.2,-36.184 -36.183,-36.184 -19.985,0 -36.184,16.201 -36.184,36.184 0,19.984 16.199,36.184 36.184,36.184 19.983,0 36.183,-16.2 36.183,-36.184 M 3.235,-21.739 c 0,-3.556 -2.887,-6.334 -8.867,-6.334 -4.677,0 -8.054,2.96 -8.054,6.516 0,3.485 3.963,6.492 8.639,6.44 5.19,0 8.282,-3.232 8.282,-6.622"
         style="fill:#000000;fill-opacity:1;fill-rule:nonzero;stroke:none"
         id="path46"
         inkscape:connector-curvature="0" /></g><g
       id="g48"
       transform="translate(271.7656,291.1865)"><path
         d="m 0,0 c -1.851,-0.871 -3.526,-1.48 -5.025,-1.831 -1.5,-0.349 -3.121,-0.524 -4.865,-0.524 -1.978,0 -3.726,0.25 -5.248,0.75 -1.521,0.499 -2.818,1.21 -3.89,2.135 -1.075,0.925 -1.821,1.909 -2.235,2.949 -0.414,1.042 -0.621,2.551 -0.621,4.529 l 0,15.179 -4.742,0 0,6.17 c 1.695,0.553 3.147,1.344 4.355,2.373 1.209,1.032 2.179,2.269 2.91,3.714 0.731,1.445 1.235,3.281 1.511,5.513 l 6.136,0 0,-10.971 10.285,0 0,-6.799 -10.285,0 0,-11.109 c 0,-2.512 0.133,-4.123 0.399,-4.836 0.266,-0.713 0.761,-1.283 1.484,-1.707 0.957,-0.575 2.054,-0.863 3.287,-0.863 2.192,0 4.374,0.714 6.544,2.14 L 0,0 z M -14.016,55.836 C -34,55.836 -50.2,39.636 -50.2,19.652 c 0,-19.984 16.2,-36.183 36.184,-36.183 19.984,0 36.183,16.199 36.183,36.183 0,19.984 -16.199,36.184 -36.183,36.184"
         style="fill:#000000;fill-opacity:1;fill-rule:nonzero;stroke:none"
         id="path50"
         inkscape:connector-curvature="0" /></g><g
       id="g52"
       transform="translate(374.4512,300.5615)"><path
         d="m 0,0 c 0,2.404 -0.686,4.647 -1.867,6.549 0.211,1.205 0.329,2.445 0.329,3.711 0,11.75 -9.525,21.273 -21.274,21.273 -1.338,0 -2.647,-0.129 -3.917,-0.365 -1.879,1.145 -4.086,1.803 -6.447,1.803 -6.856,0 -12.415,-5.559 -12.415,-12.416 0,-2.39 0.677,-4.621 1.847,-6.515 -0.221,-1.227 -0.342,-2.488 -0.342,-3.78 0,-11.748 9.524,-21.274 21.274,-21.274 1.364,0 2.695,0.133 3.987,0.379 1.871,-1.131 4.064,-1.782 6.411,-1.782 C -5.558,-12.416 0,-6.857 0,0 m 13.038,10.277 c 0,-19.984 -16.2,-36.183 -36.184,-36.183 -19.984,0 -36.184,16.199 -36.184,36.183 0,19.984 16.2,36.184 36.184,36.184 19.984,0 36.184,-16.2 36.184,-36.184 M -10.559,4.918 c 0,-5.765 -4.614,-9.543 -11.503,-9.543 -6.059,0 -12.148,2.747 -12.118,7.475 0.01,1.427 1.075,2.737 2.492,2.737 3.567,0 3.535,-5.302 9.215,-5.302 3.986,0 5.346,2.175 5.346,3.69 0,5.472 -17.225,2.117 -17.225,12.41 0,5.57 4.577,9.413 11.769,8.99 6.86,-0.402 10.879,-3.42 11.27,-6.238 0.191,-1.842 -1.034,-3.274 -3.16,-3.274 -3.102,0 -3.42,4.137 -8.762,4.137 -2.411,0 -4.446,-1.001 -4.446,-3.176 0,-4.543 17.122,-1.904 17.122,-11.906"
         style="fill:#000000;fill-opacity:1;fill-rule:nonzero;stroke:none"
         id="path54"
         inkscape:connector-curvature="0" /></g><g
       id="g56"
       transform="translate(267.4248,192.6768)"><path
         d="m 0,0 -29.505,0 c -5.509,0 -9.973,4.465 -9.973,9.974 0,3.978 2.332,7.412 5.702,9.012 0.027,3.814 3.124,6.898 6.943,6.898 1.345,0 2.596,-0.389 3.659,-1.051 2.328,3.949 6.622,6.6 11.538,6.6 7.208,0 13.084,-5.698 13.372,-12.836 C 6.087,17.781 9.38,13.966 9.38,9.38 9.38,4.199 5.181,0 0,0 m -15.225,51.205 c -19.987,0 -36.191,-16.204 -36.191,-36.191 0,-19.988 16.204,-36.191 36.191,-36.191 19.989,0 36.191,16.203 36.191,36.191 0,19.987 -16.202,36.191 -36.191,36.191"
         style="fill:#000000;fill-opacity:1;fill-rule:nonzero;stroke:none"
         id="path58"
         inkscape:connector-curvature="0" /></g><g
       id="g60"
       transform="translate(178.6143,191.127)"><path
         d="m 0,0 c 0,-3.057 -2.477,-5.533 -5.533,-5.533 l -28.448,0 c -3.057,0 -5.534,2.476 -5.534,5.533 l 0,13.98 c 0,3.057 2.477,5.536 5.534,5.536 l 28.448,0 C -2.477,19.516 0,17.037 0,13.98 L 0,0 z m -30.981,40.066 1.875,-7.033 1.742,7.033 2.76,0 -3.163,-10.459 0,-7.137 -2.718,0 0,7.137 -3.233,10.459 2.737,0 z m 9.791,-4.508 c 1.957,0 3.469,-1.456 3.469,-3.489 l 0,-6.362 c 0,-2.181 -1.528,-3.478 -3.469,-3.478 -2.34,0 -3.538,1.191 -3.538,3.478 l 0,6.362 c 0,2.083 1.411,3.489 3.538,3.489 m 5.518,-0.107 2.414,0 0,-9.952 c 0,-0.522 0.125,-0.874 0.643,-0.874 0.47,0 1.125,0.604 1.42,0.973 l 0,9.851 2.412,0 0,-12.979 -2.412,0 0,1.432 c -1.047,-1.241 -2.061,-1.62 -2.791,-1.62 -1.293,0 -1.686,1.036 -1.686,2.319 l 0,10.85 z m -4.263,17.304 c -19.986,0 -36.189,-16.204 -36.189,-36.192 0,-19.987 16.203,-36.19 36.189,-36.19 19.99,0 36.194,16.203 36.194,36.19 0,19.988 -16.204,36.192 -36.194,36.192 M -6.004,6.42 l -2.031,0 0,1.25 c 0,0.851 0.176,1.45 1.027,1.45 0.824,0 1.004,-0.612 1.004,-1.45 l 0,-1.25 z m -0.906,4.864 c -2.074,0 -3.49,-1.489 -3.49,-3.637 l 0,-5.548 c 0,-2.226 1.121,-3.825 3.316,-3.825 2.422,0 3.445,1.443 3.445,3.825 l 0,0.929 -2.365,0 0,-0.859 c 0,-1.077 -0.057,-1.73 -1.027,-1.73 -0.926,0 -1.004,0.801 -1.004,1.73 l 0,2.332 4.396,0 0,3.146 c 0,2.236 -1.066,3.637 -3.271,3.637 m -20.603,1.652 -2.677,0 0,-14.327 -2.588,0 0,14.327 -2.68,0 0,2.433 7.945,0 0,-2.433 z m 4.231,-1.965 2.299,0 0,-12.362 -2.299,0 0,1.365 c -0.424,-0.502 -0.865,-0.886 -1.322,-1.149 -1.239,-0.71 -2.94,-0.695 -2.94,1.814 l 0,10.332 2.299,0 0,-9.475 c 0,-0.498 0.121,-0.834 0.611,-0.834 0.447,0 1.072,0.574 1.352,0.926 l 0,9.383 z m 1.039,14.846 0,6.039 c 0,0.71 0.328,1.238 1.006,1.238 0.74,0 1.056,-0.512 1.056,-1.238 l 0,-6.039 c 0,-0.707 -0.359,-1.229 -1.009,-1.229 -0.666,0 -1.053,0.545 -1.053,1.229 M -14.5,1.506 c 0,-0.394 -0.066,-0.677 -0.201,-0.852 -0.252,-0.332 -0.801,-0.316 -1.174,-0.126 -0.176,0.087 -0.357,0.234 -0.545,0.435 l 0,7.703 c 0.156,0.17 0.313,0.296 0.475,0.377 0.402,0.203 0.922,0.164 1.199,-0.203 0.162,-0.215 0.246,-0.532 0.246,-0.949 l 0,-6.385 z m 0.123,9.622 c -0.82,0 -1.525,-0.523 -2.043,-1.155 l 0,5.396 -2.321,0 0,-16.76 2.321,0 0,0.95 c 0.641,-0.799 1.342,-1.106 2.184,-1.106 1.529,0 2.101,1.189 2.101,2.717 l 0,6.859 c 0,1.676 -0.558,3.099 -2.242,3.099"
         style="fill:#000000;fill-opacity:1;fill-rule:nonzero;stroke:none"
         id="path62"
         inkscape:connector-curvature="0" /></g><g
       id="g64"
       transform="translate(78.9561,190.0176)"><path
         d="m 0,0 c -0.022,8.215 -3.231,15.935 -9.042,21.745 -5.8,5.8 -13.501,9.007 -21.696,9.042 l 0,7.721 C -9.516,38.434 7.672,21.229 7.721,0 L 0,0 z m -13.075,0 c -0.101,9.696 -7.969,17.563 -17.663,17.663 l 0,7.72 C -16.765,25.283 -5.457,13.975 -5.356,0 l -7.719,0 z m -12.453,0 c -2.878,0 -5.21,2.334 -5.21,5.212 0,2.877 2.332,5.21 5.21,5.21 2.879,0 5.21,-2.333 5.21,-5.21 0,-2.878 -2.331,-5.212 -5.21,-5.212 m 11.734,53.864 c -19.987,0 -36.189,-16.204 -36.189,-36.191 0,-19.987 16.202,-36.191 36.189,-36.191 19.988,0 36.192,16.204 36.192,36.191 0,19.987 -16.204,36.191 -36.192,36.191"
         style="fill:#000000;fill-opacity:1;fill-rule:nonzero;stroke:none"
         id="path66"
         inkscape:connector-curvature="0" /></g><g
       id="g68"
       transform="translate(88.5322,103.4736)"><path
         d="m 0,0 c 0,-5.639 -4.571,-10.211 -10.211,-10.211 -5.608,0 -10.16,4.524 -10.21,10.12 l 0,6.364 3.01,-1.675 4.764,1.61 0,-6.418 c 0,-1.334 1.082,-2.416 2.416,-2.416 1.335,0 2.418,1.082 2.418,2.416 l 0,6.543 L 0,6.333 0,0 z m -22.837,16.837 c -1.336,0 -2.416,-1.082 -2.416,-2.418 l 0,-14.565 c -0.08,-5.572 -4.622,-10.065 -10.212,-10.065 -5.639,0 -10.21,4.572 -10.21,10.211 l 0,6.333 7.815,0 0,-6.25 c 0,-1.335 1.081,-2.417 2.417,-2.417 1.334,0 2.417,1.082 2.417,2.417 l 0,14.747 c 0,5.789 4.675,9.841 10.189,9.841 5.533,0 10.19,-4.334 10.19,-9.9 l 0,-3.229 -4.764,-1.61 -3.01,1.676 0,2.811 c 0,1.336 -1.082,2.418 -2.416,2.418 m -0.528,25.939 c -20.02,0 -36.25,-16.229 -36.25,-36.25 0,-20.02 16.23,-36.25 36.25,-36.25 20.019,0 36.25,16.23 36.25,36.25 0,20.021 -16.231,36.25 -36.25,36.25"
         style="fill:#000000;fill-opacity:1;fill-rule:nonzero;stroke:none"
         id="path70"
         inkscape:connector-curvature="0" /></g><g
       id="g72"
       transform="translate(178.4712,112.832)"><path
         d="m 0,0 c 0,1.059 -0.857,1.916 -1.916,1.916 l -3.152,0 c -1.058,0 -1.916,0.857 -1.916,1.915 l 0,0.838 c 0,6.525 -5.289,11.813 -11.814,11.813 l -8.181,0 c -6.525,0 -11.813,-5.288 -11.813,-11.813 l 0,-15.086 c 0,-6.524 5.288,-11.812 11.813,-11.812 l 15.165,0 C -5.289,-22.229 0,-16.941 0,-10.417 L 0,0 z m 16.542,-2.873 c 0,-20.044 -16.248,-36.292 -36.291,-36.292 -20.043,0 -36.292,16.248 -36.292,36.292 0,20.043 16.249,36.291 36.292,36.291 20.043,0 36.291,-16.248 36.291,-36.291 m -28.87,-4.669 -14.132,0 c -1.279,0 -2.315,-1.037 -2.315,-2.315 0,-1.279 1.036,-2.316 2.315,-2.316 l 14.132,0 c 1.279,0 2.315,1.037 2.315,2.316 0,1.278 -1.036,2.315 -2.315,2.315 M -28.775,4.271 c 0,1.277 1.036,2.315 2.315,2.315 l 7.062,0 c 1.28,0 2.315,-1.038 2.315,-2.315 0,-1.28 -1.035,-2.316 -2.315,-2.316 l -7.062,0 c -1.279,0 -2.315,1.036 -2.315,2.316"
         style="fill:#000000;fill-opacity:1;fill-rule:nonzero;stroke:none"
         id="path74"
         inkscape:connector-curvature="0" /></g><g
       id="g76"
       transform="translate(256.3662,114.6855)"><path
         d="m 0,0 c 0.548,-1.127 1.062,-2.266 1.556,-3.408 4.381,0.754 9.185,0.707 14.41,-0.149 C 15.712,0.94 13.993,5.047 11.257,8.281 8.45,4.785 4.685,2.029 0,0 m 20.257,-4.691 c 0,13.447 -10.901,24.347 -24.347,24.347 -13.445,0 -24.346,-10.9 -24.346,-24.347 0,-13.446 10.901,-24.346 24.346,-24.346 13.446,0 24.347,10.9 24.347,24.346 m 11.722,0 c 0,-19.92 -16.148,-36.069 -36.069,-36.069 -19.919,0 -36.068,16.149 -36.068,36.069 0,19.921 16.149,36.07 36.068,36.07 19.921,0 36.069,-16.149 36.069,-36.07 m -28.8,-2.724 c 1.703,-4.553 3.006,-9.22 3.894,-13.993 4.569,3.059 7.795,7.941 8.682,13.595 -4.582,0.795 -8.772,0.935 -12.576,0.398 m -5.809,3.021 c -0.433,0.974 -0.886,1.943 -1.358,2.906 -5.644,-1.775 -12.379,-2.672 -20.187,-2.684 -0.004,-0.174 -0.026,-0.344 -0.026,-0.517 0,-4.884 1.753,-9.366 4.658,-12.852 4.407,6.611 10.059,11.004 16.913,13.147 M 8.171,11.217 c -3.399,2.626 -7.644,4.205 -12.261,4.205 -1.704,0 -3.351,-0.236 -4.932,-0.639 2.66,-3.574 5.016,-7.256 7.077,-11.031 4.299,1.82 7.673,4.313 10.116,7.465 m -21.335,2.017 c -5.164,-2.626 -9.039,-7.41 -10.443,-13.162 6.803,0.047 12.689,0.793 17.62,2.244 -2.083,3.74 -4.474,7.383 -7.177,10.918 M -1.018,-8.309 c 1.881,-4.91 3.266,-9.961 4.146,-15.134 -2.245,-0.867 -4.672,-1.36 -7.218,-1.36 -4.652,0 -8.931,1.602 -12.343,4.267 3.995,6.266 9.096,10.345 15.415,12.227"
         style="fill:#000000;fill-opacity:1;fill-rule:nonzero;stroke:none"
         id="path78"
         inkscape:connector-curvature="0" /></g><g
       id="g80"
       transform="translate(465.8828,102.7578)"><path
         d="m 0,0 c -1.211,9.727 -12.375,17.344 -25.971,17.344 -0.235,0 -0.468,-0.003 -0.702,-0.008 l 0,4.461 c -2.136,0.14 -4.234,-0.195 -6.29,-1.094 l 0,-4.055 C -43.227,14.561 -50.943,7.992 -51.94,0 l 25.267,0 0,13.672 c 9.39,0.171 14.452,-2.919 15.663,-8.906 l -7.676,0 0,6.445 c -2.029,0.706 -4.168,0.994 -6.385,0.977 L -25.071,0 0,0 z m 9.574,7.236 c 0,-19.92 -16.148,-36.068 -36.07,-36.068 -19.92,0 -36.068,16.148 -36.068,36.068 0,19.922 16.148,36.071 36.068,36.071 19.922,0 36.07,-16.149 36.07,-36.071 m -42.537,5.537 0,-8.007 -7.889,0 c 0.852,4.111 3.475,6.838 7.889,8.007"
         style="fill:#000000;fill-opacity:1;fill-rule:nonzero;stroke:none"
         id="path82"
         inkscape:connector-curvature="0" /></g><g
       id="g84"
       transform="translate(366.4863,113.1943)"><path
         d="m 0,0 c -3.203,-9.372 -6.937,-19.837 -7.598,-21.864 -0.658,-2.029 -2.976,-1.625 -3.535,-0.074 -0.31,0.859 -3.697,10.136 -6.648,18.228 -1.948,-5.643 -5.742,-16.655 -6.229,-18.154 -0.66,-2.029 -2.978,-1.625 -3.537,-0.076 -0.558,1.551 -11.113,30.453 -11.113,30.453 -2.211,0.205 -1.844,0.158 -2.393,0.222 -0.545,0.064 -0.787,0.627 -0.691,1.135 0.133,0.606 0.691,0.649 1.078,0.627 0.193,-0.011 2.895,-0.219 5.617,-0.221 2.736,0 5.494,0.209 5.729,0.221 0.466,0.024 0.957,-0.072 1.045,-0.74 0.089,-0.668 -0.442,-0.983 -0.762,-1.029 -0.318,-0.048 -2.551,-0.216 -2.551,-0.216 l 7.932,-23.616 4.816,14.292 c -1.902,5.208 -3.406,9.324 -3.406,9.324 -2.211,0.206 -1.844,0.159 -2.393,0.223 -0.547,0.064 -0.787,0.627 -0.691,1.133 0.135,0.607 0.691,0.651 1.08,0.629 0.191,-0.011 2.895,-0.221 5.615,-0.221 2.739,0 5.494,0.209 5.729,0.221 0.467,0.024 0.957,-0.072 1.045,-0.74 0.09,-0.668 -0.442,-0.983 -0.762,-1.029 -0.318,-0.05 -2.551,-0.216 -2.551,-0.216 l 7.906,-23.516 3.139,10.421 c 0,0 2.133,5.633 -1.469,10.58 -3.603,4.945 -0.761,7.717 0.569,8.15 C 0.203,15.851 2.832,8.54 0,0 m -20.654,32.87 c -19.92,0 -36.069,-16.148 -36.069,-36.07 0,-19.92 16.149,-36.069 36.069,-36.069 19.92,0 36.068,16.149 36.068,36.069 0,19.922 -16.148,36.07 -36.068,36.07"
         style="fill:#000000;fill-opacity:1;fill-rule:nonzero;stroke:none"
         id="path86"
         inkscape:connector-curvature="0" /></g><g
       id="g88"
       transform="translate(436.5039,310.6929)"><path
         d="m 0,0 c 0,-0.483 -0.046,-0.954 -0.128,-1.411 l 14.056,-6.94 c 1.436,1.584 3.51,2.579 5.819,2.579 4.338,0 7.855,-3.517 7.855,-7.855 0,-4.339 -3.517,-7.856 -7.855,-7.856 -4.339,0 -7.856,3.517 -7.856,7.856 0,0.028 0.003,0.057 0.003,0.085 l -14.908,7.359 c -1.334,-1.046 -3.014,-1.671 -4.84,-1.671 -4.339,0 -7.857,3.515 -7.857,7.854 0,4.338 3.518,7.854 7.857,7.854 2.233,0 4.247,-0.933 5.676,-2.429 l 14.13,7.42 c -0.038,0.313 -0.061,0.632 -0.061,0.955 0,4.34 3.517,7.855 7.856,7.855 4.338,0 7.855,-3.515 7.855,-7.855 0,-4.338 -3.516,-7.855 -7.855,-7.855 -2.001,0 -3.825,0.749 -5.213,1.981 L -0.008,0.289 C -0.004,0.192 0,0.097 0,0 m 8.405,36.271 c -19.984,0 -36.184,-16.201 -36.184,-36.184 0,-19.984 16.2,-36.184 36.184,-36.184 19.984,0 36.184,16.2 36.184,36.184 0,19.983 -16.2,36.184 -36.184,36.184"
         style="fill:#000000;fill-opacity:1;fill-rule:nonzero;stroke:none"
         id="path90"
         inkscape:connector-curvature="0" /></g><g
       id="g92"
       transform="translate(458.8242,207.6426)"><path
         d="m 0,0 c 0,-4.872 -3.964,-8.835 -8.835,-8.835 -4.872,0 -8.836,3.963 -8.836,8.835 0,4.871 3.964,8.835 8.836,8.835 C -3.964,8.835 0,4.871 0,0 m -8.835,-12.048 c -4.697,0 -8.767,2.688 -10.753,6.609 -1.987,-3.921 -6.056,-6.609 -10.753,-6.609 -6.653,0 -12.048,5.395 -12.048,12.048 0,6.653 5.395,12.048 12.048,12.048 4.697,0 8.766,-2.688 10.753,-6.609 1.986,3.921 6.056,6.609 10.753,6.609 6.653,0 12.048,-5.395 12.048,-12.048 0,-6.653 -5.395,-12.048 -12.048,-12.048 m -10.753,48.239 c -19.987,0 -36.191,-16.204 -36.191,-36.191 0,-19.987 16.204,-36.19 36.191,-36.19 19.988,0 36.191,16.203 36.191,36.19 0,19.987 -16.203,36.191 -36.191,36.191"
         style="fill:#000000;fill-opacity:1;fill-rule:nonzero;stroke:none"
         id="path94"
         inkscape:connector-curvature="0" /></g><g
       id="g96"
       transform="translate(366.8281,215.4287)"><path
         d="m 0,0 c -0.193,-4.219 -3.139,-9.994 -8.834,-17.325 -5.891,-7.658 -10.873,-11.487 -14.949,-11.487 -2.526,0 -4.662,2.331 -6.406,6.995 -1.166,4.276 -2.332,8.55 -3.499,12.826 -1.296,4.662 -2.685,6.997 -4.173,6.997 -0.323,0 -1.457,-0.684 -3.399,-2.042 l -2.039,2.627 c 2.139,1.879 4.246,3.759 6.322,5.639 2.852,2.464 4.993,3.761 6.42,3.892 3.371,0.323 5.446,-1.981 6.225,-6.916 0.842,-5.325 1.424,-8.636 1.752,-9.932 0.971,-4.418 2.039,-6.624 3.209,-6.624 0.906,0 2.267,1.433 4.084,4.298 1.814,2.866 2.787,5.046 2.916,6.543 0.26,2.474 -0.713,3.714 -2.916,3.714 -1.037,0 -2.108,-0.238 -3.207,-0.711 2.131,6.977 6.197,10.365 12.201,10.172 C -1.842,8.533 0.256,5.646 0,0 m -21.111,28.405 c -19.989,0 -36.19,-16.204 -36.19,-36.191 0,-19.987 16.201,-36.191 36.19,-36.191 19.988,0 36.191,16.204 36.191,36.191 0,19.987 -16.203,36.191 -36.191,36.191"
         style="fill:#000000;fill-opacity:1;fill-rule:nonzero;stroke:none"
         id="path98"
         inkscape:connector-curvature="0" /></g><g
       id="g4156"
       inkscape:export-filename="/Users/dacmanj/Downloads/Social Media Icons/link20.png"
       inkscape:export-xdpi="20"
       inkscape:export-ydpi="20"><path
         sodipodi:nodetypes="csssc"
         inkscape:connector-curvature="0"
         id="path4153"
         style="fill:#482458;fill-opacity:1;fill-rule:nonzero;stroke:none"
         d="m 214.6284,535.2501 c -19.882,0 -36,-16.117 -36,-36 0,-19.883 16.118,-36 36,-36 19.882,0 36,16.117 36,36 0,19.883 -16.118,36 -36,36" /><path
         style="fill:#ffffff;fill-opacity:1"
         inkscape:connector-curvature="0"
         d="m 231.77346,501.41509 -7.18038,-7.17791 c -3.96324,-3.9657 -10.39259,-3.9657 -14.35583,0 -0.62459,0.62214 -1.11285,1.32359 -1.5417,2.04733 l 3.33618,3.33619 c 0.15862,0.15989 0.35446,0.25158 0.54155,0.35937 0.23049,-0.78823 0.63325,-1.53426 1.25293,-2.15385 1.97912,-1.98039 5.20006,-1.97794 7.17791,0 l 7.17792,7.17791 c 1.98039,1.98039 1.98039,5.20006 0,7.17918 -1.97793,1.97912 -5.19753,1.97912 -7.17792,0 l -2.55296,-2.55542 c -2.07081,0.80678 -4.30278,1.02363 -6.47526,0.70518 l 5.43919,5.4392 c 3.96569,3.96443 10.39258,3.96443 14.35828,0 3.96332,-3.96459 3.96332,-10.39275 9e-5,-14.35718 z m -18.98206,-11.80295 -2.55415,-2.55542 c -1.97912,-1.97792 -5.20006,-1.97792 -7.17918,0 -1.97912,1.9804 -1.97912,5.20006 0,7.18038 l 7.17918,7.17792 c 1.98039,1.98038 5.19879,1.98038 7.17792,0 0.61841,-0.61842 1.02116,-1.36445 1.25419,-2.1514 0.18837,0.10906 0.38173,0.19829 0.54036,0.35691 l 3.33619,3.33492 c -0.42632,0.7262 -0.91711,1.42519 -1.54171,2.04852 -3.96324,3.96442 -10.39258,3.96442 -14.35709,0 l -7.17792,-7.17792 c -3.96442,-3.96569 -3.96442,-10.39258 0,-14.35828 3.96443,-3.96323 10.39259,-3.96323 14.35709,0 l 5.44047,5.44046 c -2.17376,-0.31972 -4.40573,-0.1016 -6.47535,0.70391 z"
         id="path3950" /></g></g></svg>